<?xml version="1.0" encoding="utf-8"?>
<!-- Generator: Adobe Illustrator 23.0.6, SVG Export Plug-In . SVG Version: 6.00 Build 0)  -->
<svg version="1.1" id="Camada_1" xmlns="http://www.w3.org/2000/svg" xmlns:xlink="http://www.w3.org/1999/xlink" x="0px" y="0px"
	 viewBox="0 0 136.06 136.06" style="enable-background:new 0 0 136.06 136.06;" xml:space="preserve">
<style type="text/css">
	.st0{fill:#0E0C0E;}
	.st1{fill:#0E0B0E;}
	.st2{fill:#0C0A0D;}
</style>
<path d="M78.67,54.85c-5.35-0.56-10.32,5-11.1,12.43c-0.22,2.14,0.1,3.76,1.44,5.13c1.47,1.5,1.59,2.16,2.21,3.64
	c0.29,0.7,0.53,2.01,0.07,3.24c-0.53,1.41,3.25,2.29,4.57,2.43c5.35,0.56,10.32-5,11.1-12.43C87.74,61.88,84.03,55.41,78.67,54.85z
	 M77.37,70.02c-1.03-0.11-1.75-1.26-1.61-2.58c0.14-1.32,1.08-2.3,2.11-2.19c1.03,0.11,1.75,1.26,1.61,2.58
	C79.34,69.14,78.4,70.13,77.37,70.02z"/>
<path d="M95.53,54.78c-1.51-0.04-4.74,0.02-7.5,3.32c-1.64,1.96,1.07,5.11,0.58,11.06c-0.47,5.62-2.58,6.21-1.68,7.96
	c1.97,3.8,5.36,5.32,8.98,5.15c5.38-0.25,9.45-6.5,9.11-13.95C104.67,60.87,102.23,54.98,95.53,54.78z M95.64,70.47
	c-1.03,0.05-1.92-0.99-1.98-2.31s0.72-2.44,1.75-2.48c1.03-0.05,1.92,0.99,1.98,2.31C97.45,69.31,96.67,70.42,95.64,70.47z"/>
<path class="st0" d="M27.27,72.54l-2.63-3.15c0,0,1.83-0.72,2.81-3.73c1.1-3.4,0.35-5.92-0.83-7.77c-1.9-2.96-6.01-3.17-6.01-3.17
	s-7.19,0.36-10.53,0.9c-3.33,0.54-3.07,5.04-3.07,5.04s1.08,11.79,1.36,16.06c0.28,4.26,1.58,5.24,3.81,5.73
	c2.24,0.5,3.46-1.22,4.12-2.61c0.66-1.4-0.39-7.79-0.39-7.79s1.18,0.18,2.5,1.58c1.32,1.4,4.47,6.89,6.18,7.26
	c1.71,0.37,3.77-0.82,4.47-3.3C29.77,75.11,27.27,72.54,27.27,72.54z M18.72,64.49l-3.38,0.41l-0.35-2.7c0,0,1.58-0.05,3.29-0.18
	c1.71-0.14,1.62,0.68,1.67,1.53C19.99,64.4,18.72,64.49,18.72,64.49z"/>
<path class="st1" d="M47.37,64.02v-6.21c0,0,1.25-3.53,3.74-3.4c2.49,0.13,4.33,1.45,4.45,4.54c0.12,3.09,0.12,3.09,0.12,3.09
	l6.65-6.55c0,0,3.38-2.46,5.58-0.19c3.66,3.01-1.29,7.42-3.72,10.03c-0.75,0.8-0.69,1.65-0.69,1.65c0.14,1.14,0.36,1.97,0.86,2.56
	c2.62,3.09,3.93,4.26,4.78,5.51c1.26,1.83,1.21,2.98,0.31,4.53c-2.02,2.19-5.34,2.59-7.54-0.73c-2.2-3.32-4.87-7.48-4.87-7.48
	l-1.48,1.73c0,0,0.33,5.23-0.72,6.78c-0.87,1.29-2.46,1.64-3.12,1.62c-0.65-0.02-1.12-0.08-1.12-0.08s1.4-1.46,1.22-3.62
	c-0.2-2.28-1.01-4.94-2.26-8.01C48.41,66.93,47.37,64.02,47.37,64.02z"/>
<path class="st2" d="M44.97,62.73c-3.27-8.52-4.44-8.28-7.37-8.4c-2.92-0.12-4.09,3.2-4.09,3.2l-5.32,13.6l-0.09,0.29
	c0,0,0.79,0.74,1.75,2.62c0.95,1.87,0.75,3.12,0.34,4.42c-0.41,1.29-1.89,2.7-1.89,2.7s-0.35,0.12,1.64,0.53s3.22-1.61,3.22-1.61
	l1.75-4.32l6.55,0.12c0,0,0.41,1.2,1.58,3.56c1.17,2.36,3.39,2.56,5.03,1.96c1.64-0.6,2.05-1.98,2.05-3.9
	C50.11,75.57,48.24,71.25,44.97,62.73z M36.47,69.78l0.66-3.19c0,0,0.35-0.59,0.61-0.54c0.26,0.05,0.44,0.18,0.66,0.86
	s0.88,2.88,0.88,2.88H36.47z"/>
<path d="M104.67,77.69c1.31-2.75,3.08-6.73,1.79-13.8c-0.19-1.06-1.38-4.08-1.38-4.08s0.43-3.93,2.39-4.66
	c3.44-1.28,5.41-0.62,6.76,1.51c2.15,3.4,2.14,3.31,7.42,10.67l0.34-8.76c0,0,0.55-3.43,3.17-3.44c2.61-0.01,4.96,0.25,4.86,4.86
	s-0.68,17.49-0.68,17.49s0.28,3.7-2.12,4.63c-2.39,0.93-4.92,0.93-8.9-5.05s-4.91-6.57-4.91-6.57l-0.53,7.7
	c-0.08,0.3-0.7,2.5-2.65,3.27c-2.23,0.88-5.05-0.56-5.56-2.45C104.56,78.52,104.6,78.3,104.67,77.69z"/>
</svg>
