<?xml version="1.0" encoding="utf-8"?>
<!-- Generator: Adobe Illustrator 23.0.6, SVG Export Plug-In . SVG Version: 6.00 Build 0)  -->
<svg version="1.1" id="Camada_1" xmlns="http://www.w3.org/2000/svg" xmlns:xlink="http://www.w3.org/1999/xlink" x="0px" y="0px"
	 viewBox="0 0 136.06 136.06" style="enable-background:new 0 0 136.06 136.06;" xml:space="preserve">
<style type="text/css">
	.st0{stroke:#000000;stroke-miterlimit:10;}
	.st1{fill:#FFFFFF;stroke:#000000;stroke-width:8;stroke-miterlimit:10;}
</style>
<path d="M72.15,93.23c-3.4-0.99-7.36-0.02-7.36-0.02s-3.44,0.64-3.31,4.48c0.2,5.72,6.86,6.48,6.86,6.48s6.25-0.89,6.73-6.12
	C75.22,96.49,75.55,94.23,72.15,93.23z"/>
<path class="st0" d="M66.1,74.53C64.02,67.9,52,58.87,52,58.87s-6.08-2.76-11.21-0.03c-5.13,2.73-26.85,15.23-25.89,25.25
	c0.96,10.03,11.13,13.45,16.8,12.17c4.21-0.95,13.52-5.4,19.89-8.43C63.72,82.07,68.18,81.17,66.1,74.53z M49.26,73.94
	c-2.19,0-3.96-1.68-3.96-3.76s1.77-3.76,3.96-3.76c2.19,0,3.96,1.68,3.96,3.76S51.44,73.94,49.26,73.94z"/>
<g>
	<path class="st1" d="M23.91,48.03c0,0-4.2-19.94-1.49-27.82s9.72-2.37,14.02,2.21c4.65,4.95,9.38,10.93,9.38,10.93
		s-4.1,1.46-6.2,2.45c-2.1,0.98-5.79,3.19-9.04,5.47C28.29,42.88,23.91,48.03,23.91,48.03z"/>
	<path class="st1" d="M113.28,48.27c0,0,4.17-19.94,1.48-27.82c-2.69-7.88-9.63-2.37-13.9,2.21c-4.61,4.95-9.3,10.93-9.3,10.93
		s4.06,1.46,6.15,2.45s5.75,3.19,8.97,5.47C108.94,43.12,113.28,48.27,113.28,48.27z"/>
</g>
<g>
	<g>
		<path d="M70.01,25.76c-5.36-0.38-10.97,0.35-16.19,1.52c-4.9,1.09-9.7,2.82-14.09,5.25c-2.33,1.28-4.63,2.78-6.64,4.54
			c-1.73,1.52-3.15,3.4-4.54,5.22c-0.41,0.55-0.83,1.1-1.22,1.67c-0.43,0.64,0.47-0.53,0.14-0.16c-0.35,0.39-0.67,0.81-1.01,1.21
			c-1.63,1.96-3.26,3.91-4.89,5.87c-4.06,4.88-8.13,9.75-12.19,14.63c-2.27,2.72-4.9,5.26-5.62,8.88
			c-1.83,9.2,6.19,16.74,12.84,21.66c7.87,5.82,16.87,10.08,25.86,13.88c8.27,3.49,17.29,7.1,26.45,6.88
			c0.37-0.01,0.74-0.02,1.1-0.07c1.34-0.17,2.5-1.03,2.5-2.5c0-1.22-1.15-2.67-2.5-2.5c-1.47,0.19-3.01,0.06-4.47-0.07
			c-1.6-0.15-3.26-0.43-5.2-0.86c-2.54-0.56-5.05-1.29-7.51-2.14c-5.64-1.95-11.16-4.38-16.55-6.96c-4.21-2.02-8.35-4.21-12.31-6.69
			c-3.08-1.93-5.58-3.69-8.12-5.94c-1.02-0.91-2.01-1.86-2.93-2.88c-0.36-0.39-0.71-0.8-1.04-1.21c-0.11-0.13-0.21-0.26-0.32-0.39
			c0.04,0.04,0.34,0.46,0.09,0.12c-0.19-0.25-0.38-0.51-0.56-0.77c-0.54-0.78-1.04-1.59-1.47-2.44c-0.1-0.19-0.19-0.39-0.28-0.58
			c-0.22-0.45-0.09-0.24-0.02-0.03c-0.14-0.39-0.29-0.76-0.41-1.15c-0.11-0.35-0.2-0.7-0.27-1.05c-0.03-0.15-0.06-0.3-0.09-0.46
			c-0.02-0.08-0.02-0.17-0.04-0.25c-0.1-0.39,0.04,0.67,0.04,0.27c0-0.61-0.09-1.21-0.06-1.83C8.5,76.29,8.52,76.14,8.53,76
			c0.03-0.63-0.1,0.43-0.03,0.18c0.07-0.25,0.09-0.52,0.15-0.77c0.11-0.48,0.28-0.93,0.44-1.4c0.12-0.35-0.35,0.68,0.02-0.02
			c0.1-0.19,0.19-0.39,0.3-0.58c0.17-0.3,0.36-0.58,0.55-0.86c0.31-0.48-0.05,0.08-0.13,0.15c0.09-0.08,0.15-0.19,0.23-0.28
			c0.1-0.11,0.21-0.22,0.3-0.33c0.37-0.42,0.73-0.85,1.08-1.28c6.52-7.82,13.14-15.57,19.56-23.47c1.8-2.22,3.16-4.44,5.3-6.43
			c3.46-3.23,8.18-5.47,12.61-7.02c6.55-2.29,13.05-3.32,19.94-3.16c0.38,0.01,0.77,0.02,1.15,0.05c1.35,0.1,2.5-1.22,2.5-2.5
			C72.51,26.83,71.36,25.86,70.01,25.76L70.01,25.76z"/>
	</g>
</g>
<g>
	<g>
		<path d="M66.78,30.76c5.11-0.36,10.13,0.27,14.96,1.34c4.64,1.03,9.16,2.6,13.32,4.93c2.1,1.18,4.25,2.49,5.98,4.18
			c1.41,1.38,2.67,2.97,3.73,4.41c2.23,3.03,4.74,5.85,7.15,8.73c3.98,4.75,7.97,9.5,11.95,14.25c1.08,1.28,2.12,2.61,3.26,3.84
			c0.08,0.08,0.14,0.19,0.22,0.27c0.1,0.1-0.47-0.68-0.1-0.12c0.19,0.3,0.39,0.59,0.56,0.9c0.09,0.16,0.17,0.32,0.25,0.48
			c0.05,0.09,0.08,0.19,0.13,0.29c0.2,0.37-0.25-0.73-0.07-0.17c0.15,0.46,0.31,0.9,0.42,1.37c0.06,0.25,0.08,0.52,0.14,0.77
			c0.09,0.32-0.05-0.8-0.03-0.22c0.01,0.15,0.03,0.31,0.04,0.46c0.03,0.61-0.05,1.21-0.06,1.82c0,0.24,0.14-0.72,0-0.08
			c-0.03,0.17-0.06,0.34-0.1,0.5c-0.08,0.37-0.18,0.74-0.29,1.1c-0.11,0.35-0.26,0.69-0.37,1.04c-0.14,0.45,0.28-0.57,0.06-0.15
			c-0.04,0.07-0.07,0.15-0.1,0.23c-0.11,0.23-0.22,0.47-0.34,0.7c-0.44,0.85-0.94,1.66-1.49,2.44c-0.15,0.22-0.31,0.43-0.47,0.64
			c0.44-0.59-0.12,0.14-0.23,0.27c-0.37,0.46-0.76,0.9-1.16,1.33c-0.91,0.98-1.87,1.91-2.88,2.8c-1.31,1.15-2.3,1.93-3.49,2.79
			c-7.58,5.53-16.19,9.66-24.81,13.3c-7.98,3.37-16.64,6.82-25.08,6.59c-0.37-0.01-0.74-0.02-1.11-0.07c-1.34-0.18-2.5,1.28-2.5,2.5
			c0,1.5,1.16,2.32,2.5,2.5c1.58,0.21,3.26,0.07,4.83-0.09c4.78-0.47,9.46-1.63,14-3.2c5.98-2.07,11.85-4.64,17.57-7.36
			c4.36-2.07,8.64-4.33,12.73-6.9c5.39-3.39,10.68-7.35,14.4-12.59c2.03-2.86,3.51-6.38,3.38-9.95c-0.08-2.26-0.75-4.55-2.03-6.43
			c-0.63-0.93-1.41-1.73-2.13-2.59c-3.62-4.31-7.24-8.63-10.85-12.94c-3.02-3.61-5.9-7.43-9.12-10.87c-0.34-0.36,0.53,0.75,0.2,0.25
			c-0.4-0.6-0.85-1.18-1.29-1.75c-1.39-1.83-2.82-3.7-4.56-5.22c-4.04-3.53-9.05-6.03-14.07-7.83c-6.92-2.48-14.5-3.68-21.85-3.52
			c-0.41,0.01-0.81,0.02-1.22,0.05c-1.35,0.1-2.5,1.08-2.5,2.5C64.28,29.54,65.42,30.86,66.78,30.76L66.78,30.76z"/>
	</g>
</g>
<path class="st0" d="M8.32,72.76c0,0,36.98-29.83,45.19-25.63s13.57,49.71,13.57,49.71h1.88l0.13-68.64c0,0-15.07-0.24-22.9,4.37
	c-7.83,4.61-9.62,5.52-13.38,9.82C29.05,46.71,8.32,72.76,8.32,72.76z"/>
<path class="st0" d="M128.44,72.52c0,0-37.41-29.59-45.43-25.39S69.75,96.85,69.75,96.85h-1.84l-0.13-68.64
	c0,0,14.72-0.24,22.37,4.37c7.65,4.61,10.34,5.43,14.01,9.74S128.44,72.52,128.44,72.52z"/>
<path class="st0" d="M70.51,74.53c2.1-6.64,14.23-15.66,14.23-15.66s6.14-2.76,11.32-0.03c5.18,2.73,27.11,15.23,26.15,25.25
	c-0.97,10.03-11.24,13.45-16.97,12.17c-4.25-0.95-13.65-5.4-20.09-8.43C72.91,82.07,68.41,81.17,70.51,74.53z M87.52,73.94
	c2.21,0,4-1.68,4-3.76s-1.79-3.76-4-3.76c-2.21,0-4,1.68-4,3.76S85.31,73.94,87.52,73.94z"/>
</svg>
